<?xml version="1.0" encoding="UTF-8"?>
<svg width="100" height="100" viewBox="0 0 100 100" xmlns="http://www.w3.org/2000/svg">
  <!-- Search magnifying glass -->
  <path d="M40 15C26.2 15 15 26.2 15 40C15 53.8 26.2 65 40 65C53.8 65 65 53.8 65 40C65 26.2 53.8 15 40 15ZM40 60C29 60 20 51 20 40C20 29 29 20 40 20C51 20 60 29 60 40C60 51 51 60 40 60Z" 
        fill="none" stroke="#4CD964" stroke-width="4"/>
  
  <!-- Handle of magnifying glass -->
  <path d="M60 60L85 85" stroke="#4CD964" stroke-width="8" stroke-linecap="round"/>
  
  <!-- X mark inside the magnifying glass indicating no results -->
  <path d="M30 30L50 50M30 50L50 30" stroke="#4CD964" stroke-width="4" stroke-linecap="round"/>
</svg> 